<?xml version="1.0" standalone="no"?>
<!DOCTYPE svg PUBLIC "-//W3C//DTD SVG 20010904//EN"
 "http://www.w3.org/TR/2001/REC-SVG-20010904/DTD/svg10.dtd">
<svg version="1.0" xmlns="http://www.w3.org/2000/svg"
 width="512.000000pt" height="512.000000pt" viewBox="0 0 512.000000 512.000000"
 preserveAspectRatio="xMidYMid meet">
<metadata>
Created by potrace 1.11, written by Peter Selinger 2001-2013
</metadata>
<g transform="translate(0.000000,512.000000) scale(0.100000,-0.100000)"
fill="#000000" stroke="none">
<path d="M2379 5106 c-2 -2 -35 -7 -74 -10 -79 -7 -128 -14 -165 -21 -147 -29
-193 -39 -240 -52 -283 -77 -576 -214 -807 -378 l-74 -52 -260 -1 c-144 0
-264 -4 -267 -7 -3 -3 -6 -126 -5 -273 l0 -267 -57 -85 c-180 -268 -317 -606
-375 -926 -35 -195 -43 -299 -40 -509 1 -115 5 -220 8 -233 3 -12 8 -48 11
-80 5 -46 28 -169 50 -262 58 -245 196 -562 336 -774 l71 -109 -3 -254 c-2
-139 -1 -259 3 -265 5 -8 80 -12 261 -13 245 -1 286 -6 308 -35 3 -3 41 -30
85 -60 44 -29 92 -61 106 -70 92 -64 470 -228 584 -255 11 -3 61 -16 110 -29
50 -13 108 -26 130 -29 22 -4 67 -11 100 -17 107 -19 207 -25 395 -25 219 0
392 18 540 55 19 5 64 16 100 25 188 47 458 157 600 244 19 11 42 24 50 28 19
8 173 110 218 143 33 24 33 24 287 25 140 0 257 4 262 9 4 4 7 125 6 269 l-1
261 57 85 c157 235 302 567 347 794 2 10 6 27 9 37 3 10 8 29 10 42 3 13 7 34
10 48 3 14 8 42 11 64 3 21 7 48 10 60 12 63 19 192 19 361 0 212 -6 289 -35
440 -5 28 -12 65 -15 84 -8 46 -41 171 -72 266 -70 217 -194 467 -324 653
l-39 55 3 251 c2 138 0 258 -4 267 -7 13 -43 15 -267 16 l-260 1 -53 39 c-30
21 -55 41 -57 45 -2 5 -7 8 -11 8 -4 0 -59 31 -122 68 -244 145 -513 248 -794
302 -27 6 -61 12 -75 15 -14 3 -45 8 -70 11 -24 3 -56 8 -70 11 -34 5 -455 14
-461 9z"/>
</g>
</svg>
